<svg width="25" height="24" viewBox="0 0 25 24" fill="none" xmlns="http://www.w3.org/2000/svg">
<path d="M19.25 3H17V2.25C17 2.05109 16.921 1.86033 16.7803 1.71968C16.6397 1.57903 16.4489 1.50001 16.25 1.5H8.75C8.55109 1.50001 8.36033 1.57903 8.21968 1.71968C8.07903 1.86033 8.00001 2.05109 8 2.25V3H5.75C5.35231 3.00045 4.97105 3.15864 4.68984 3.43984C4.40864 3.72105 4.25045 4.10231 4.25 4.5V20.25C4.25045 20.6477 4.40864 21.029 4.68984 21.3102C4.97105 21.5914 5.35231 21.7495 5.75 21.75H19.25C19.6477 21.7495 20.029 21.5914 20.3102 21.3102C20.5914 21.029 20.7495 20.6477 20.75 20.25V4.5C20.7495 4.10231 20.5914 3.72105 20.3102 3.43984C20.029 3.15864 19.6477 3.00045 19.25 3V3ZM9.5 3H15.5V5.25H9.5V3ZM15.5 15H9.5C9.30109 15 9.11032 14.921 8.96967 14.7803C8.82902 14.6397 8.75 14.4489 8.75 14.25C8.75 14.0511 8.82902 13.8603 8.96967 13.7197C9.11032 13.579 9.30109 13.5 9.5 13.5H15.5C15.6989 13.5 15.8897 13.579 16.0303 13.7197C16.171 13.8603 16.25 14.0511 16.25 14.25C16.25 14.4489 16.171 14.6397 16.0303 14.7803C15.8897 14.921 15.6989 15 15.5 15ZM15.5 12H9.5C9.30109 12 9.11032 11.921 8.96967 11.7803C8.82902 11.6397 8.75 11.4489 8.75 11.25C8.75 11.0511 8.82902 10.8603 8.96967 10.7197C9.11032 10.579 9.30109 10.5 9.5 10.5H15.5C15.6989 10.5 15.8897 10.579 16.0303 10.7197C16.171 10.8603 16.25 11.0511 16.25 11.25C16.25 11.4489 16.171 11.6397 16.0303 11.7803C15.8897 11.921 15.6989 12 15.5 12Z" fill="white"/>
</svg>
